HIERARCHY
ROOT pelvis
{
  OFFSET 0 100 0
  CHANNELS 6 Xposition Yposition Zposition Zrotation Xrotation Yrotation
  JOINT pelvis_right_femur
  {
    OFFSET -10.78128 -3.44521 -0.5502486
    CHANNELS 3 Zrotation Xrotation Yrotation
    JOINT right_femur_tibia
    {
      OFFSET -0.8047443 -44.0398 -0.1307829
      CHANNELS 3 Zrotation Xrotation Yrotation
      JOINT right_tibia_foot
      {
        OFFSET 3.006224 -47.83518 -5
        CHANNELS 3 Zrotation Xrotation Yrotation
        End Site
        {
          OFFSET 0 -5 15
        }
      }
    }
  }
  JOINT pelvis_left_femur
  {
    OFFSET 10.78128 -3.44521 -0.5502486
    CHANNELS 3 Zrotation Xrotation Yrotation
    JOINT left_femur_tibia
    {
      OFFSET 0.8047443 -44.0398 -0.1307829
      CHANNELS 3 Zrotation Xrotation Yrotation
      JOINT left_tibia_foot
      {
        OFFSET -4.370144 -48.10324 -4.275266
        CHANNELS 3 Zrotation Xrotation Yrotation
        End Site
        {
          OFFSET 0 -5 15
        }
      }
    }
  }
  JOINT pelvis_spine1
  {
    OFFSET 0 6.468898 -3.129235
    CHANNELS 3 Zrotation Xrotation Yrotation
    JOINT spine1
    {
      OFFSET 0 23.15396 4.99043
      CHANNELS 3 Zrotation Xrotation Yrotation
      JOINT spine2
      {
        OFFSET 0 20.79997 -5.064912
        CHANNELS 3 Zrotation Xrotation Yrotation
        JOINT neck
        {
          OFFSET 0 14.38658 9.616178
          CHANNELS 3 Zrotation Xrotation Yrotation
          End Site
          {
            OFFSET 0 20 0
          }
        }
      }
      JOINT right_manubrium
      {
        OFFSET -5.722621 16.35077 3.967754
        CHANNELS 3 Zrotation Xrotation Yrotation
        JOINT right_clavicle
        {
          OFFSET -13.16364 1.694482 -4.693211
          CHANNELS 3 Zrotation Xrotation Yrotation
          JOINT right_humerus
          {
            OFFSET -28.5034 -0.3100689 -2.792744
            CHANNELS 3 Zrotation Xrotation Yrotation
            JOINT right_radius
            {
              OFFSET -25.15693 0.02248979 -1.271978
              CHANNELS 3 Zrotation Xrotation Yrotation
              End Site
              {
                OFFSET -15 0 0
              }
            }
          }
        }
      }
      JOINT left_manubrium
      {
        OFFSET 5.722621 16.35077 3.967754
        CHANNELS 3 Zrotation Xrotation Yrotation
        JOINT left_clavicle
        {
          OFFSET 13.16364 1.694482 -4.693211
          CHANNELS 3 Zrotation Xrotation Yrotation
          JOINT left_humerus
          {
            OFFSET 29.39168 -1.063119 -2.237045
            CHANNELS 3 Zrotation Xrotation Yrotation
            JOINT left_radius
            {
              OFFSET 24.59957 -0.9528479 0.9047498
              CHANNELS 3 Zrotation Xrotation Yrotation
              End Site
              {
                OFFSET 15 -0 -0
              }
            }
          }
        }
      }
    }
  }
}
MOTION
Frames: 13
Frame Time: 0.0416666666667
0 103.5113 0 1.808209 0.46849 0.03715142 3.30172 -17.64592 10.75816 -0 38.61142 -0 -5.508574 -18.6146 -3.476633 -8.328226 8.804233 -23.51698 -0 4.699972 -0 17.63909 -12.68985 30.17848 -4.719295 -3.837172 5.433618 3.016422 9.860962 -7.762785 1.561156 21.52838 6.350647 2.719362 -25.02158 9.622461 6.761067 -20.24879 11.93619 84.64379 39.17523 -16.95465 -0 0 16.79732 -5.259155 7.591699 4.59329 5.534035 -18.16079 -0.6851978 -90.76037 19.51019 19.37761 0 0 -15.03114 16.41146 12.36079 -5.336651
0.3882333 102.9282 1.615303 1.65905 0.6097161 0.08300137 3.58782 -18.74242 10.44403 -0 37.45162 -0 -5.50439 -17.63116 -3.256184 -8.205016 9.112897 -23.12646 -0 4.661296 -0 17.33693 -13.12025 29.83025 -4.596829 -3.68872 5.358863 3.026659 9.935165 -7.795942 1.530198 21.43131 6.41007 2.776539 -25.10351 9.601475 6.656433 -20.22616 11.93912 84.89818 39.07596 -17.21951 -0 0 16.51802 -5.48706 7.652987 4.669314 5.670923 -18.458 -0.8169649 -90.5451 19.4862 19.14662 0 0 -15.85816 16.34482 12.2669 -5.231423
0.7670017 102.2553 3.497931 1.251707 0.5730067 0.1462878 3.988399 -20.87151 9.333462 -0 35.50717 -0 -5.760996 -15.27879 -2.80922 -7.781809 9.812944 -22.06378 -0 4.557151 -0 15.88144 -14.24194 28.57561 -4.181431 -3.394968 5.058108 2.919801 10.14332 -7.833118 1.445627 21.40444 6.515886 2.890133 -25.01704 9.450999 6.337344 -20.12244 11.97466 85.64663 38.0419 -17.96162 -0 0 15.66128 -6.548692 7.885703 4.989837 5.973698 -19.41242 -1.318668 -90.13459 19.78177 18.58668 0 0 -17.5547 15.99651 12.83015 -4.597629
1.138563 101.4878 5.656347 0.9045089 0.8702672 0.2007117 4.565865 -23.10491 8.686161 -0 32.79551 -0 -5.776142 -13.25567 -2.384961 -7.500411 10.48769 -21.20929 -0 4.623308 -0 14.97008 -15.25823 27.72243 -3.874563 -3.128424 4.910594 2.924496 10.26282 -7.892543 1.41513 21.23819 6.625686 2.975124 -25.22093 9.461068 6.027386 -20.05124 11.92852 86.24697 37.56855 -18.61327 -0 0 15.02756 -7.082669 8.088868 5.123822 6.280252 -20.08881 -1.565464 -89.84131 19.97256 18.21552 0 0 -19.1802 15.71342 12.87393 -4.119084
1.50078 100.594 8.160702 0.5379819 1.336474 0.2614069 5.272153 -25.71287 8.065691 -0 29.22272 -0 -5.72862 -10.98887 -1.909761 -7.241315 11.30334 -20.24132 -0 4.849778 -0 14.08363 -16.41131 26.80681 -3.564287 -2.844788 4.788371 2.975911 10.36044 -7.971314 1.401457 21.0079 6.743392 3.046557 -25.54585 9.527095 5.631501 -19.96281 11.83579 86.94078 37.14546 -19.38461 -0 0 14.30141 -7.546281 8.305171 5.235231 6.622707 -20.78573 -1.766089 -89.5031 20.13558 17.81017 0 0 -21.09156 15.39945 12.72086 -3.608048
1.848941 99.55065 11.10664 0.1649029 1.937677 0.3537058 6.062098 -28.60163 7.411538 -0 24.80957 -0 -5.657634 -8.439371 -1.400365 -7.014517 12.29895 -19.10371 -0 5.335663 -0 13.16522 -17.68445 25.74294 -3.252265 -2.565749 4.670185 3.071131 10.43355 -8.067371 1.402484 20.74113 6.853804 3.083427 -25.94377 9.633304 5.116915 -19.83622 11.69469 87.78249 36.66596 -20.31463 -0 0 13.39629 -7.994832 8.518863 5.357735 6.971529 -21.51865 -1.94301 -89.07206 20.25317 17.3221 0 0 -23.31489 15.03913 12.38105 -3.044391
2.174987 98.34195 14.62979 -0.2025276 2.576088 0.5253689 6.824501 -31.57977 6.557241 -0 19.66707 -0 -5.653559 -5.539997 -0.8840854 -6.821395 13.54018 -17.68356 -0 6.24713 -0 12.05856 -19.02931 24.34091 -2.924199 -2.325206 4.503386 3.193359 10.48296 -8.174504 1.410402 20.50109 6.930356 3.048657 -26.30619 9.739075 4.419117 -19.63135 11.50713 88.86278 35.88016 -21.45573 -0 0 12.15135 -8.571633 8.704443 5.568096 7.272858 -22.33156 -2.158814 -88.46227 20.30675 16.64877 0 0 -25.87009 14.59381 11.91804 -2.378635
2.467708 96.98219 18.89723 -0.5416112 3.088734 0.8474138 7.371713 -34.16259 5.322586 -0 14.25111 -0 -5.841555 -2.415815 -0.438101 -6.66873 15.05499 -15.90138 -0 7.882053 -0 10.5803 -20.23606 22.39739 -2.559017 -2.200714 4.22113 3.314413 10.50263 -8.281739 1.416803 20.38886 6.927822 2.880908 -26.46488 9.790384 3.48404 -19.29288 11.27985 90.23277 34.47856 -22.80459 -0 0 10.41218 -9.41025 8.820197 5.944057 7.425429 -23.22509 -2.477658 -87.61052 20.27598 15.69896 0 0 -28.58977 14.02808 11.43483 -1.576644
2.716078 95.55979 24.0595 -0.8471042 3.23348 1.394886 7.518508 -35.47789 3.639321 -0 9.686859 -0 -6.384277 0.459395 -0.2117145 -6.52846 16.73228 -13.79674 -0 10.73606 -0 8.52501 -20.80066 19.77397 -2.09511 -2.312961 3.749787 3.380641 10.49441 -8.37285 1.410112 20.53458 6.795305 2.519235 -26.19399 9.724624 2.340549 -18.76098 11.04217 91.82354 32.19419 -24.23241 -0 0 8.143333 -10.57451 8.836609 6.519813 7.286254 -24.12471 -2.951574 -86.56478 20.17907 14.4759 0 0 -30.93652 13.32751 11.12583 -0.6437639
2.919948 94.29652 30.12107 -1.194548 2.815359 2.171623 7.400519 -34.54669 1.958529 -0 7.821107 -0 -7.404078 2.182434 -0.4008214 -6.258826 18.09001 -11.71363 -0 15.50863 -0 5.828531 -19.87771 16.68762 -1.392148 -2.74208 3.091694 3.316204 10.50529 -8.431199 1.375156 20.98608 6.544208 2.002974 -25.36537 9.524601 1.260798 -18.03748 10.86962 93.32369 29.2696 -25.43026 -0 0 5.725151 -11.85878 8.821186 7.165385 6.755215 -24.82968 -3.543526 -85.65983 20.15495 13.30702 0 0 -31.89993 12.53164 11.22335 0.3421989
3.104945 93.52346 36.7759 -1.741396 1.975504 2.982629 7.59356 -31.30317 1.353994 -0 9.864563 -0 -8.801346 1.902616 -1.043002 -5.611583 18.08022 -10.32038 -0 22.78904 -0 2.880359 -16.81084 13.98906 -0.3112496 -3.302663 2.501655 3.074742 10.67055 -8.441336 1.289599 21.50609 6.34845 1.600585 -24.26483 9.277772 0.803705 -17.30871 10.87659 94.20991 27.04873 -26.04671 -0 0 4.151803 -12.68788 8.98235 7.545893 5.941968 -25.0696 -4.053102 -85.50056 20.43192 12.99022 0 0 -30.60925 11.7413 11.67117 1.253252
3.315678 93.44067 43.48389 -2.405638 1.136512 3.464197 8.227672 -27.0368 2.247489 -0 13.92325 -0 -10.15244 -0.1918036 -1.745259 -4.608477 15.62787 -9.938652 -0 32.23028 -0 0.5414393 -12.29667 12.58789 0.9239443 -3.504265 2.470184 2.710479 11.14022 -8.360566 1.146529 21.69794 6.400468 1.629069 -23.48809 9.070016 1.253913 -16.91178 11.12121 94.20142 27.09379 -25.98906 -0 0 4.258848 -12.71395 9.386174 7.487857 5.133856 -24.77776 -4.290283 -86.2919 20.90636 14.12395 0 0 -27.67554 11.06369 11.86255 1.985755
3.569367 93.90931 49.88203 -2.663674 0.2870856 3.416993 8.548942 -22.60933 3.439943 -0 16.32048 -0 -11.01558 -2.86437 -2.001984 -3.705393 10.93078 -9.929058 -0 42.11832 -0 -0.5621446 -8.22377 12.33896 1.667578 -3.151818 3.163487 2.325394 11.88288 -8.104616 1.019326 21.62549 6.51326 1.972666 -23.08484 8.80036 2.022778 -16.9741 11.52294 93.63052 28.69052 -25.39891 -0 0 5.524244 -12.57234 9.798458 7.361522 4.484861 -24.24236 -4.383939 -87.38675 21.06605 16.08695 0 0 -24.74856 10.55967 11.48979 2.457896
